<svg xmlns="http://www.w3.org/2000/svg" viewBox="0 0 64 64" fill="none">
  <!-- Sound wave bars - left (navy) -->
  <line x1="8" y1="26" x2="8" y2="38" stroke="#1B3F8B" stroke-width="2.5" stroke-linecap="round"/>
  <line x1="13" y1="22" x2="13" y2="42" stroke="#1B3F8B" stroke-width="2.5" stroke-linecap="round"/>
  <line x1="18" y1="18" x2="18" y2="46" stroke="#1B3F8B" stroke-width="2.5" stroke-linecap="round"/>
  <line x1="23" y1="24" x2="23" y2="40" stroke="#1B3F8B" stroke-width="2.5" stroke-linecap="round"/>

  <!-- Heart center (teal) -->
  <path d="M32 50 C32 50 18 38 18 28 C18 22 22 18 27 18 C30 18 32 20 32 20 C32 20 34 18 37 18 C42 18 46 22 46 28 C46 38 32 50 32 50Z" fill="#6ECFD0"/>

  <!-- Sound wave bars - right (purple) -->
  <line x1="41" y1="24" x2="41" y2="40" stroke="#9B4DCA" stroke-width="2.5" stroke-linecap="round"/>
  <line x1="46" y1="18" x2="46" y2="46" stroke="#9B4DCA" stroke-width="2.5" stroke-linecap="round"/>
  <line x1="51" y1="22" x2="51" y2="42" stroke="#9B4DCA" stroke-width="2.5" stroke-linecap="round"/>
  <line x1="56" y1="26" x2="56" y2="38" stroke="#9B4DCA" stroke-width="2.5" stroke-linecap="round"/>
</svg>
